<svg width="234" height="25" viewBox="0 0 234 25" fill="none" xmlns="http://www.w3.org/2000/svg">
<g style="mix-blend-mode:multiply">
<path d="M234 19.2271C226.716 19.2271 226.716 24.4593 219.375 24.4593C212.091 24.4593 212.091 19.2271 204.75 19.2271C197.466 19.2271 197.466 24.4593 190.125 24.4593C182.841 24.4593 182.841 19.2271 175.5 19.2271C168.216 19.2271 168.216 24.4593 160.875 24.4593C153.591 24.4593 153.591 19.2271 146.25 19.2271C138.966 19.2271 138.966 24.4593 131.625 24.4593C124.341 24.4593 124.341 19.2271 117 19.2271C109.716 19.2271 109.716 24.4593 102.375 24.4593C95.0905 24.4593 95.0905 19.2271 87.75 19.2271C80.4655 19.2271 80.4655 24.4593 73.125 24.4593C65.8405 24.4593 65.8405 19.2271 58.5 19.2271C51.2155 19.2271 51.2155 24.4593 43.875 24.4593C36.5905 24.4593 36.5905 19.2271 29.25 19.2271C21.9655 19.2271 21.9655 24.4593 14.625 24.4593C7.34052 24.4593 7.34052 19.2271 0 19.2271" stroke="#FF774B" stroke-width="2" stroke-linecap="round" stroke-miterlimit="10"/>
<path d="M2.5363 10.144V14.2H1.0403V14.728C1.37097 14.744 1.6323 14.7653 1.8243 14.792C2.02164 14.8187 2.17364 14.8667 2.2803 14.936C2.38697 15.0053 2.46964 15.1067 2.5283 15.24C2.5923 15.3787 2.65364 15.5653 2.7123 15.8H3.2403V10.144H2.5363ZM1.2243 5.736H4.1523V5.12H1.8003L1.5683 3.488C1.72297 3.62666 1.89364 3.72266 2.0803 3.776C2.26697 3.82933 2.4563 3.856 2.6483 3.856C2.9843 3.856 3.2883 3.77866 3.5603 3.624C3.8323 3.47466 4.0483 3.25866 4.2083 2.976C4.36831 2.69866 4.44831 2.36533 4.44831 1.976C4.44831 1.59733 4.36831 1.25866 4.2083 0.959997C4.05364 0.661331 3.8323 0.426664 3.5443 0.255997C3.2563 0.0853305 2.90964 -2.81632e-06 2.5043 -2.81632e-06C2.3443 -2.81632e-06 2.16564 0.0213305 1.9683 0.0639972C1.77097 0.106664 1.5763 0.181331 1.3843 0.287997C1.19764 0.399997 1.03497 0.554664 0.896305 0.751997C0.757638 0.949331 0.666971 1.20266 0.624305 1.512H1.3363C1.4963 0.914664 1.88564 0.615997 2.5043 0.615997C2.90964 0.615997 3.21364 0.738664 3.4163 0.983997C3.6243 1.23466 3.7283 1.55466 3.7283 1.944C3.7283 2.33333 3.62964 2.65066 3.4323 2.896C3.2403 3.14133 2.93897 3.264 2.5283 3.264C2.3043 3.264 2.1043 3.21866 1.9283 3.128C1.75764 3.04266 1.59764 2.90133 1.4483 2.704H0.808305L1.2243 5.736Z" fill="#FF774B"/>
</g>
</svg>
