<svg width="181" height="44" viewBox="0 0 181 44" fill="none" xmlns="http://www.w3.org/2000/svg">
<g clip-path="url(#clip0_1699_633)">
<path d="M4.20944 31.265C6.67869 29.6113 9.08716 27.7435 11.7008 26.2892C12.5745 25.8019 14.9374 25.2039 15.3629 24.761C16.0542 24.0301 16.5101 19.6966 18.5539 17.8657C21.669 15.0751 28.9627 17.2087 29.7833 21.2395C29.6541 21.7858 28.3777 21.8375 27.8535 22.3764C27.3292 22.9154 27.1393 24.4288 26.3263 24.9972C26.1896 25.0932 23.7431 26.4737 23.5988 26.5402C21.1067 27.6623 17.2623 24.82 19.3137 30.7187C23.9862 32.3355 33.1567 25.3811 37.0847 27.02C38.1484 27.463 38.5055 28.2751 38.3535 29.3677C31.8879 29.0502 25.8249 35.4287 19.5112 33.1623C17.1939 32.3281 16.1682 30.8737 15.4236 28.6442L14.8994 28.6147C13.1215 28.8066 6.68629 33.8341 4.95401 35.2073C4.18664 35.8126 3.97391 37.112 2.46197 37.1415C-1.53442 37.2079 0.471369 31.8261 0.706897 29.5596C1.58823 21.1583 3.35849 13.8127 5.20474 5.6107C5.47825 4.39997 4.9768 1.01138 7.46885 3.38856C9.63419 5.44829 7.39287 9.09526 6.94461 11.4872C6.81545 12.1812 7.02059 12.9711 6.87623 13.6872C5.69859 19.5415 3.73078 25.1818 4.20944 31.2724V31.265ZM25.1563 19.5785C24.3054 20.0731 20.5597 20.5086 20.2026 20.7966C19.9975 20.9664 19.2301 23.0704 19.3441 23.5207C19.648 24.7241 23.462 22.7382 24.0926 22.2214C24.8448 21.6086 25.2855 20.5308 25.1563 19.5785Z" fill="#6A79A8"/>
<path d="M179.429 9.82612L176.215 8.74827C172.424 11.2288 171.641 15.5771 170.129 19.4529C170.426 19.8073 170.494 19.9402 170.995 19.9402C173.457 19.9402 181.389 15.5771 180.979 21.1509C180.918 21.2321 179.945 20.5308 179.528 20.457C178.069 20.1986 170.312 21.7341 169.316 22.8268C168.321 23.9194 167.744 32.21 167.28 34.4321C167.098 35.3254 166.824 36.2703 166.604 37.1784C166.52 37.518 166.771 38.02 166.042 37.7469C165.867 37.6804 164.233 36.4549 164.059 36.263C162.957 34.9858 164.332 34.3066 164.628 32.9999C165.289 30.1207 164.902 27.0348 165.837 24.1778C163.952 24.067 162.501 25.5509 160.632 24.5764C158.687 23.1959 165.707 22.0885 166.528 21.4536C167.462 18.5892 168.632 15.6583 170.038 12.9858C170.798 11.5463 173.487 6.88049 174.559 6.06103C175.25 5.53687 177.15 4.98318 177.886 5.48519C178.426 7.35297 180.515 7.81069 179.421 9.84089L179.429 9.82612Z" fill="#6A79A8"/>
<path d="M152.75 8.74091C154.156 11.2805 151.648 13.414 151.656 15.8429C153.874 16.714 156.253 15.459 158.425 15.865C161.434 16.4335 158.707 21.1509 158.342 22.9227C157.977 24.6946 158.228 26.9905 157.506 28.8362C152.674 30.1945 156.731 20.8556 156.123 19.6301C155.303 17.9691 154.087 19.5858 153.396 19.6154C152.59 19.6449 151.603 18.5375 149.901 18.8624C147.675 19.2832 146.505 26.4811 146.262 28.5335C146.178 29.2643 146.862 31.3831 144.924 30.9033C142.447 30.2905 143.618 25.3959 143.99 23.6905C144.332 22.1402 145.251 20.708 145.411 19.106C145.084 18.065 142.531 19.0395 142.721 17.3711C142.934 17.0905 146.186 16.8838 146.961 16.404C148.647 15.3557 150.174 10.6013 150.919 8.74829H152.75V8.74091Z" fill="#6A79A8"/>
<path d="M126.441 27.5221C126.996 27.6624 127.474 27.906 128.082 27.8469C130.559 27.5885 136.371 24.9308 138.651 25.263C139.988 25.455 140.033 27.6181 140.018 28.6811C135.467 27.7509 130.361 31.0583 126.221 30.9623C125.089 30.9328 122.232 29.3234 122.27 28.0979C122.278 27.8322 123.052 27.4409 123.235 26.8872C123.6 25.802 123.47 24.8127 124.162 23.6463C125.453 21.4758 128.728 19.8664 131.091 19.0617C131.813 18.8181 135.087 17.8584 135.657 17.7993C137.42 17.6074 137.792 20.7375 136.918 21.3429C134.251 20.3758 133.249 21.1362 130.977 22.3396C128.705 23.5429 126.357 24.7389 126.449 27.5295L126.441 27.5221Z" fill="#6A79A8"/>
<path d="M160.631 12.7718L160.578 10.5644L162.151 10.7342C163.07 12.1147 162.5 13.8865 160.631 12.7718Z" fill="#6A79A8"/>
<mask id="mask0_1699_633" style="mask-type:luminance" maskUnits="userSpaceOnUse" x="41" y="0" width="85" height="44">
<path d="M57.5143 0L120.568 5.52213L123.037 22.4724L123.888 26.2375L124.526 29.2717L125.871 37.2153L99.7575 43.0845L43.1015 38.1751L41.9922 19.5046L57.5143 0Z" fill="white"/>
</mask>
<g mask="url(#mask0_1699_633)">
<path d="M148.193 14.2187C147.843 14.263 145.974 14.7798 145.845 14.957C144.903 17.7993 145.108 20.4791 145.776 23.3657C146.149 24.9751 147.083 25.6912 148.884 25.4623C149.203 25.418 154.635 23.3804 154.879 23.1811C155.479 22.6939 157.804 17.5852 158.275 16.4852C158.746 15.3852 159.354 11.561 160.607 11.5684C161.382 11.5684 162.431 12.7422 162.301 13.5691C161.853 16.4999 158.746 20.3462 158.533 23.4395L159.27 23.8898L166.389 22.1771C167.05 22.3174 168.159 25.1523 167.787 25.5435C165.933 24.7388 165.204 25.5878 163.981 25.8093C162.757 26.0308 161.527 26.112 160.326 26.4073C159.346 26.6435 158.579 27.4778 157.492 27.463C155.889 27.4408 155.046 25.4992 153.663 25.5509C151.551 25.6247 148.686 28.3637 146.263 28.1791C143.626 27.9798 143.717 25.7429 142.753 24.0523C141.529 24.5321 142.023 26.4516 141.415 26.8945C140.846 27.308 137.731 27.3818 136.72 27.6106C134.585 28.0905 128.834 30.2683 127.268 30.0764C126.357 29.9657 125.779 29.2939 124.526 29.2939C118.524 29.2791 106.375 35.0375 106.481 24.2368C106.512 21.1362 110.478 15.7691 113.942 16.2046C115.69 16.4261 120.856 19.3865 120.879 21.2247C120.879 21.5053 119.283 23.0704 119.01 23.2254C118.759 23.3657 115.811 24.5912 115.477 24.6945C114.36 25.0194 110.181 25.322 109.748 25.9127C109.315 26.5033 109.52 27.7731 110.128 28.2382C113.144 30.5489 120.332 25.9865 123.887 26.267C124.26 22.4945 126.813 19.3643 129.745 17.0684C132.678 14.7724 134.707 13.8201 136.743 17.6442C134.426 16.7066 131.873 18.6335 130.14 20.0952C128.066 21.8523 123.933 28.1717 128.78 28.2455C129.692 28.2603 137.487 25.9422 138.771 25.4697C139.896 25.0563 141.301 23.7127 142.889 23.6314C142.92 20.7006 142.061 17.9395 142.943 15.0087C141.317 14.9496 139.698 15.7617 138.103 15.7764C137.335 15.7764 137.48 15.7321 137.518 15.016C138.855 14.3959 142.981 14.1744 143.755 13.3402C144.599 12.4321 146.103 6.71807 146.445 5.20465C151.118 5.9429 146.027 10.4093 146.833 13.1261L154.187 12.7717L154.21 14.2556C152.303 14.4254 150.046 14.0194 148.193 14.2556V14.2187ZM116.882 19.5637C113.836 17.7697 109.262 20.3684 109.581 24.0227C110.576 23.5281 112.377 23.6757 113.084 23.4764C114.109 23.1885 115.431 21.4167 116.882 21.3207V19.5563V19.5637Z" fill="#6A79A8"/>
<path d="M59.9824 10.867C59.6025 12.1147 58.3261 12.1738 57.3764 13.067C55.325 14.9939 51.5413 19.667 50.3333 22.059C48.8442 25.0046 47.5678 27.5589 49.4976 30.5636C52.1188 34.6462 57.3612 31.1912 60.6054 30.1576C63.8496 29.124 67.2154 28.2012 70.5052 27.3006C71.4017 27.0569 72.2375 27.5885 72.6326 26.3851C73.096 24.9824 72.9745 23.4616 73.8102 21.867C76.4162 16.8617 80.6709 17.4523 85.6322 17.9026L99.6956 11.9597L100.972 13.1999C99.4069 19.0247 96.3526 24.2516 96.3906 30.4381C92.0751 30.8073 93.9821 26.1636 94.6507 23.6462C95.3497 21.0033 96.9148 18.2939 97.4846 15.8355C97.6138 15.2744 97.7886 14.8093 96.9756 14.9643C96.2766 15.0899 91.4293 17.2529 90.4948 17.718C85.1156 20.4127 88.5649 20.1543 88.8385 23.063C89.0664 25.514 86.9238 26.0603 85.3511 27.4408C84.9712 27.773 84.9712 28.5187 84.6521 28.8287C83.5505 29.9066 78.9007 31.2354 77.252 31.1542C74.1597 31.014 73.3392 28.6516 71.774 28.5999C70.8091 28.563 68.4766 29.3012 67.3826 29.5818C62.6416 30.8073 56.3431 34.4469 51.6705 33.7381C48.2895 33.2287 46.223 31.3314 45.957 27.9798C45.4784 21.9482 52.4303 12.5576 57.4676 9.37577C59.0327 8.38651 59.8836 7.84759 61.8666 8.42342C62.1629 8.51202 62.4516 9.11 62.9075 9.2355C63.6901 9.4496 64.6626 9.11 65.354 9.50127C66.0454 9.89255 67.6713 12.6758 65.7187 12.5429C64.4954 12.4617 61.9198 10.461 59.99 10.867H59.9824ZM83.1098 20.7006C79.2806 21.2247 74.3572 23.912 76.2187 28.371C76.7277 28.7771 77.0696 28.7844 77.685 28.6737C78.8019 28.467 83.7784 26.5992 84.5306 25.8757C86.4148 24.0596 86.9618 20.169 83.1098 20.7006Z" fill="#6A79A8"/>
<path d="M107.246 11.1993C107.444 11.3248 107.695 13.1556 107.634 13.6134C107.307 16.116 105.704 18.2865 105.02 20.5308C103.82 24.4878 103.379 29.722 103.752 33.8194L100.705 33.3912C100.621 25.8757 103.577 18.8993 105.765 11.8268C105.886 11.214 106.897 10.9704 107.239 11.1919L107.246 11.1993Z" fill="#6A79A8"/>
</g>
</g>
<defs>
<clipPath id="clip0_1699_633">
<rect width="181" height="43.0845" fill="white"/>
</clipPath>
</defs>
</svg>
