<?xml version="1.0" encoding="UTF-8"?> <svg xmlns="http://www.w3.org/2000/svg" width="36" height="36" viewBox="0 0 36 36" fill="none"><rect x="11.5879" y="9.79075" width="6.3402" height="1.2" rx="0.5" fill="#535353"></rect><rect x="11.5879" y="13.3157" width="10.5449" height="1.2" rx="0.5" fill="#535353"></rect><rect x="8.45312" y="5.93539" width="19.0957" height="24.1292" rx="0.5" stroke="#535353"></rect><path d="M22.2782 21.8071L31.2808 9.46075C31.4333 9.25163 31.7201 9.19343 31.942 9.32658L33.5889 10.3147C33.838 10.4642 33.9078 10.7937 33.7406 11.0312L24.6385 23.9658C24.5809 24.0477 24.5001 24.1103 24.4065 24.1457L21.6419 25.1915C21.5675 25.2197 21.4917 25.1539 21.5089 25.0763L22.1941 21.9932C22.209 21.9261 22.2377 21.8627 22.2782 21.8071Z" fill="#F4F0EE" stroke="#535353"></path><path d="M30.2891 11.6447L32.3899 13.0899" stroke="#535353"></path></svg> 