<svg width="36" height="36" viewBox="0 0 36 36" fill="none" xmlns="http://www.w3.org/2000/svg">
<path d="M21.6174 16.5994C21.4581 18.7469 19.8301 20.4988 18.0429 20.4988C16.2557 20.4988 14.6249 18.7473 14.4685 16.5994C14.306 14.3654 15.8901 12.7 18.0429 12.7C20.1957 12.7 21.7798 14.406 21.6174 16.5994Z" stroke="#525252" stroke-linecap="round" stroke-linejoin="round"/>
<path d="M18.0142 22.8817C13.1036 22.8817 10.8815 26.1489 10.2178 29.2859C10.1378 29.664 10.3888 30.0269 10.8531 30.0269H25.1503C25.6149 30.0269 25.8659 29.664 25.7859 29.2859C25.1218 26.1489 22.9247 22.8817 18.0142 22.8817Z" stroke="#525252" stroke-miterlimit="10"/>
<rect x="8.45312" y="5.93539" width="19.0957" height="24.1292" rx="0.5" stroke="#525252"/>
</svg>
