<svg width="32" height="32" viewBox="0 0 32 32" fill="none" xmlns="http://www.w3.org/2000/svg">
<rect x="0.5" y="0.5" width="31" height="31" stroke="#808BB4" stroke-opacity="0.5"/>
<rect x="7.13281" y="7.13281" width="17.7354" height="17.7354" rx="8.86768" fill="#808BB4"/>
<path fill-rule="evenodd" clip-rule="evenodd" d="M16.1093 20.9865C15.1106 20.9865 14.6466 20.8401 13.8399 20.2544C13.3297 20.9133 11.7139 21.4282 11.6435 20.5472C11.6435 19.8859 11.4977 19.3271 11.3324 18.717C11.1356 17.9654 10.9121 17.1284 10.9121 15.9156C10.9121 13.019 13.2787 10.8398 16.0825 10.8398C18.8889 10.8398 21.0878 13.1264 21.0878 15.9424C21.0972 18.715 18.8698 20.9717 16.1093 20.9865ZM16.1506 13.3436C14.7851 13.2728 13.7209 14.2221 13.4852 15.7106C13.2908 16.943 13.6358 18.4437 13.9298 18.5218C14.0707 18.556 14.4255 18.268 14.6466 18.046C15.0122 18.2996 15.4379 18.452 15.8809 18.4876C17.2958 18.556 18.5047 17.4742 18.5997 16.0547C18.655 14.6322 17.5657 13.4274 16.1506 13.346V13.3436Z" fill="#F3EDE7"/>
</svg>
