<svg width="32" height="32" viewBox="0 0 32 32" fill="none" xmlns="http://www.w3.org/2000/svg">
<rect x="0.5" y="0.5" width="31" height="31" stroke="#808BB4" stroke-opacity="0.5"/>
<g clip-path="url(#clip0_1928_5960)">
<mask id="mask0_1928_5960" style="mask-type:luminance" maskUnits="userSpaceOnUse" x="7" y="7" width="18" height="18">
<path d="M20.5208 7.22559H11.4807C9.13121 7.22559 7.22656 9.13023 7.22656 11.4797V20.5198C7.22656 22.8693 9.13121 24.7739 11.4807 24.7739H20.5208C22.8703 24.7739 24.7749 22.8693 24.7749 20.5198V11.4797C24.7749 9.13023 22.8703 7.22559 20.5208 7.22559Z" fill="white"/>
</mask>
<g mask="url(#mask0_1928_5960)">
<path d="M18.0667 15.5988H12.8823V13.5472H18.0667C18.3695 13.5472 18.5801 13.6 18.6857 13.6922C18.7914 13.7844 18.8569 13.9553 18.8569 14.2051V14.9417C18.8569 15.2048 18.7914 15.3758 18.6857 15.468C18.5801 15.5602 18.3695 15.5996 18.0667 15.5996V15.5988ZM18.4223 11.6131H10.6836V20.3865H12.8823V17.5321H16.9342L18.8569 20.3865H21.319L19.1991 17.5187C19.9807 17.4029 20.3316 17.1634 20.621 16.7687C20.9104 16.374 21.0556 15.7429 21.0556 14.9007V14.2429C21.0556 13.7434 21.0027 13.3487 20.9104 13.0462C20.8182 12.7436 20.6605 12.4805 20.4365 12.2442C20.1999 12.0204 19.9365 11.8628 19.6203 11.7573C19.304 11.6651 18.9089 11.6123 18.4223 11.6123V11.6131Z" fill="#808BB4"/>
<path d="M33.5483 7.22535C33.5483 12.0712 29.62 15.9995 24.7742 15.9995C23.7889 15.9995 22.8417 15.8371 21.9577 15.5377C21.9765 15.3292 21.9849 15.116 21.9849 14.9009V14.243C21.9849 13.6845 21.9266 13.1921 21.7993 12.7748C21.662 12.3248 21.4267 11.9376 21.1107 11.6042L21.0931 11.5857L21.0747 11.5682C20.7381 11.2498 20.3564 11.0225 19.9137 10.8747L19.8966 10.869L19.8794 10.864C19.4579 10.7411 18.9714 10.6818 18.4211 10.6818H17.4905V10.6826H16.7074C16.2521 9.62171 16 8.45297 16 7.22535C16 2.3795 19.9283 -1.54883 24.7742 -1.54883C29.62 -1.54883 33.5483 2.3795 33.5483 7.22535Z" fill="#808BB4"/>
</g>
<path d="M20.5206 7.3584H11.4806C9.2045 7.3584 7.35938 9.20352 7.35938 11.4796V20.5197C7.35938 22.7957 9.2045 24.6409 11.4806 24.6409H20.5206C22.7967 24.6409 24.6418 22.7957 24.6418 20.5197V11.4796C24.6418 9.20352 22.7967 7.3584 20.5206 7.3584Z" stroke="#808BB4" stroke-width="0.531768"/>
</g>
<defs>
<clipPath id="clip0_1928_5960">
<rect width="18" height="18" fill="white" transform="translate(7 7)"/>
</clipPath>
</defs>
</svg>
