<svg width="32" height="32" viewBox="0 0 32 32" fill="none" xmlns="http://www.w3.org/2000/svg">
<rect x="0.5" y="0.5" width="31" height="31" stroke="#808BB4" stroke-opacity="0.5"/>
<path d="M14.3346 18.4993L18.6596 15.9993L14.3346 13.4993V18.4993ZM23.968 11.9743C24.0763 12.366 24.1513 12.891 24.2013 13.5577C24.2596 14.2243 24.2846 14.7993 24.2846 15.2993L24.3346 15.9993C24.3346 17.8243 24.2013 19.166 23.968 20.0243C23.7596 20.7743 23.2763 21.2577 22.5263 21.466C22.1346 21.5743 21.418 21.6493 20.318 21.6993C19.2346 21.7577 18.243 21.7827 17.3263 21.7827L16.0013 21.8327C12.5096 21.8327 10.3346 21.6993 9.4763 21.466C8.7263 21.2577 8.24297 20.7743 8.03464 20.0243C7.9263 19.6327 7.8513 19.1077 7.8013 18.441C7.74297 17.7743 7.71797 17.1993 7.71797 16.6993L7.66797 15.9993C7.66797 14.1743 7.8013 12.8327 8.03464 11.9743C8.24297 11.2243 8.7263 10.741 9.4763 10.5327C9.86797 10.4243 10.5846 10.3493 11.6846 10.2993C12.768 10.241 13.7596 10.216 14.6763 10.216L16.0013 10.166C19.493 10.166 21.668 10.2993 22.5263 10.5327C23.2763 10.741 23.7596 11.2243 23.968 11.9743Z" fill="#808BB4"/>
</svg>
