<?xml version="1.0" encoding="UTF-8"?> <svg xmlns="http://www.w3.org/2000/svg" width="36" height="36" viewBox="0 0 36 36" fill="none"><path d="M7.19922 28.35C7.19922 29.0661 7.48368 29.7528 7.99003 30.2592C8.49638 30.7655 9.18313 31.05 9.89922 31.05H28.6867C28.7166 31.05 28.7452 31.0381 28.7663 31.017C28.7874 30.996 28.7992 30.9673 28.7992 30.9375V30.7341C28.7992 30.4771 28.6827 30.2373 28.5184 30.0397C28.1177 29.5592 27.8985 28.9532 27.8992 28.3275C27.8992 27.6764 28.1319 27.0792 28.5184 26.6153C28.6827 26.4173 28.7992 26.1779 28.7992 25.9209V25.6779C28.7991 25.6705 28.7961 25.6635 28.7909 25.6583C28.7857 25.6531 28.7787 25.6501 28.7713 25.65M9.89922 4.95H28.3582C28.4752 4.95 28.5873 4.99646 28.6701 5.07917C28.7528 5.16187 28.7992 5.27404 28.7992 5.391V25.5375C28.7992 25.5673 28.7874 25.596 28.7663 25.6171C28.7452 25.6381 28.7166 25.65 28.6867 25.65H9.89922C9.2026 25.65 8.53292 25.9192 8.03017 26.4014C7.52741 26.8836 7.23049 27.5415 7.20147 28.2375C7.20147 28.2398 7.19922 28.2398 7.19922 28.2375V7.65C7.19922 6.93392 7.48368 6.24716 7.99003 5.74081C8.49638 5.23446 9.18313 4.95 9.89922 4.95Z" stroke="#535353" stroke-linecap="round" stroke-linejoin="round"></path><path d="M13.9616 7.30795L16.3916 13.5779C16.4916 13.8179 16.5983 13.9846 16.7116 14.0779C16.8316 14.1646 16.9416 14.2113 17.0416 14.2179V14.4179C16.8683 14.4046 16.6583 14.3979 16.4116 14.3979C16.1716 14.3913 15.925 14.3879 15.6716 14.3879C15.3783 14.3879 15.105 14.3913 14.8516 14.3979C14.5983 14.3979 14.3916 14.4046 14.2316 14.4179V14.2179C14.5716 14.2046 14.7883 14.1479 14.8816 14.0479C14.975 13.9413 14.955 13.7179 14.8216 13.3779L13.0616 8.62795L13.2416 8.40795L11.6416 12.5579C11.515 12.8913 11.4383 13.1646 11.4116 13.3779C11.385 13.5913 11.4016 13.7579 11.4616 13.8779C11.5216 13.9979 11.6216 14.0846 11.7616 14.1379C11.9016 14.1846 12.075 14.2113 12.2816 14.2179V14.4179C12.0683 14.4046 11.8616 14.3979 11.6616 14.3979C11.4616 14.3913 11.2616 14.3879 11.0616 14.3879C10.915 14.3879 10.775 14.3913 10.6416 14.3979C10.515 14.3979 10.4016 14.4046 10.3016 14.4179V14.2179C10.4483 14.1846 10.5916 14.0979 10.7316 13.9579C10.8783 13.8179 11.0183 13.5746 11.1516 13.2279L13.4416 7.30795C13.5216 7.31462 13.6083 7.31795 13.7016 7.31795C13.795 7.31795 13.8816 7.31462 13.9616 7.30795ZM14.8316 11.5379V11.7379H11.8516L11.9516 11.5379H14.8316Z" fill="#535353"></path><path d="M25.794 15.8985V16.0985C25.5807 16.1052 25.4173 16.1318 25.304 16.1785C25.1973 16.2185 25.124 16.2985 25.084 16.4185C25.044 16.5318 25.024 16.7118 25.024 16.9585V21.9185C25.024 22.1585 25.0407 22.3385 25.074 22.4585C25.114 22.5785 25.1907 22.6585 25.304 22.6985C25.4173 22.7385 25.5807 22.7652 25.794 22.7785V22.9785C25.634 22.9652 25.4207 22.9585 25.154 22.9585C24.894 22.9518 24.614 22.9485 24.314 22.9485C24.054 22.9485 23.794 22.9518 23.534 22.9585C23.274 22.9585 23.0573 22.9652 22.884 22.9785V22.7785C23.104 22.7652 23.2673 22.7385 23.374 22.6985C23.4873 22.6585 23.5607 22.5785 23.594 22.4585C23.634 22.3385 23.654 22.1585 23.654 21.9185V16.9585C23.654 16.6118 23.6107 16.3818 23.524 16.2685C23.444 16.1552 23.2673 16.0985 22.994 16.0985C22.4873 16.0985 22.1307 16.2418 21.924 16.5285C21.7173 16.8152 21.614 17.2118 21.614 17.7185C21.614 18.0385 21.654 18.3285 21.734 18.5885C21.814 18.8418 21.964 19.0452 22.184 19.1985C22.404 19.3452 22.724 19.4185 23.144 19.4185H24.004C24.004 19.4185 24.004 19.4518 24.004 19.5185C24.004 19.5852 24.004 19.6185 24.004 19.6185H23.044C22.4773 19.6185 22.0073 19.5652 21.634 19.4585C21.2673 19.3452 20.9773 19.1985 20.764 19.0185C20.5507 18.8318 20.3973 18.6218 20.304 18.3885C20.2173 18.1552 20.174 17.9218 20.174 17.6885C20.174 17.3218 20.2707 17.0085 20.464 16.7485C20.6573 16.4818 20.9507 16.2752 21.344 16.1285C21.744 15.9818 22.2373 15.9085 22.824 15.9085C22.9507 15.9085 23.1607 15.9118 23.454 15.9185C23.7473 15.9252 24.054 15.9285 24.374 15.9285C24.634 15.9285 24.894 15.9252 25.154 15.9185C25.4207 15.9118 25.634 15.9052 25.794 15.8985ZM23.934 19.4485L23.914 19.6185H22.834C22.614 19.6185 22.4407 19.6785 22.314 19.7985C22.1873 19.9185 22.0907 20.0852 22.024 20.2985C21.9573 20.5118 21.894 20.7585 21.834 21.0385L21.644 22.0385C21.564 22.4585 21.4173 22.7452 21.204 22.8985C20.9907 23.0452 20.7207 23.1185 20.394 23.1185C20.1207 23.1185 19.8873 23.0718 19.694 22.9785C19.5073 22.8785 19.334 22.7252 19.174 22.5185L19.314 22.3985C19.3873 22.4852 19.454 22.5552 19.514 22.6085C19.5807 22.6552 19.6607 22.6785 19.754 22.6785C19.8873 22.6852 19.9873 22.6318 20.054 22.5185C20.1207 22.3985 20.184 22.2018 20.244 21.9285L20.454 20.8985C20.5407 20.4785 20.7207 20.1752 20.994 19.9885C21.274 19.7952 21.6773 19.6618 22.204 19.5885C22.3307 19.5685 22.4573 19.5518 22.584 19.5385C22.7107 19.5252 22.8773 19.5118 23.084 19.4985C23.2973 19.4785 23.5807 19.4618 23.934 19.4485Z" fill="#535353"></path></svg> 