<svg width="24" height="24" viewBox="0 0 24 24" fill="none" xmlns="http://www.w3.org/2000/svg">
<path d="M4.44531 4.50002C4.44531 4.4007 4.48444 4.30545 4.5541 4.23522C4.62376 4.16499 4.71823 4.12554 4.81674 4.12554H17.0739C17.1724 4.12554 17.2669 4.16499 17.3365 4.23522C17.4062 4.30545 17.4453 4.4007 17.4453 4.50002L17.4459 21.6258C17.4459 21.6963 17.4261 21.7654 17.3888 21.8251C17.3516 21.8847 17.2983 21.9326 17.2353 21.9631C17.1722 21.9936 17.1018 22.0056 17.0323 21.9976C16.9628 21.9896 16.897 21.9619 16.8424 21.9179L11.1781 17.3493C11.1122 17.2961 11.0303 17.2671 10.9459 17.2671C10.8616 17.2671 10.7797 17.2961 10.7138 17.3493L5.04952 21.9179C4.99491 21.9619 4.92906 21.9896 4.85955 21.9976C4.79005 22.0056 4.71971 21.9936 4.65665 21.9631C4.59358 21.9326 4.54034 21.8847 4.50307 21.8251C4.46579 21.7654 4.44599 21.6963 4.44595 21.6258L4.44531 4.50002Z" stroke="#525252" stroke-linecap="round" stroke-linejoin="round"/>
<path d="M7.60156 3.57895V2.37228C7.60156 2.27355 7.63959 2.17886 7.70727 2.10904C7.77495 2.03922 7.86675 2 7.96246 2H19.8722C19.968 2 20.0598 2.03922 20.1274 2.10904C20.1951 2.17886 20.2331 2.27355 20.2331 2.37228V19.5227C20.2331 19.5928 20.2139 19.6615 20.1776 19.7208C20.1414 19.7802 20.0897 19.8277 20.0284 19.8581C19.9671 19.8884 19.8988 19.9003 19.8313 19.8923C19.7637 19.8844 19.6997 19.8569 19.6467 19.8131L17.4453 18.5" stroke="#525252" stroke-linecap="round" stroke-linejoin="round"/>
</svg>
