<?xml version="1.0" encoding="UTF-8"?> <svg xmlns="http://www.w3.org/2000/svg" width="14" height="14" viewBox="0 0 14 14" fill="none"><circle cx="7" cy="7" r="7" fill="#BABCC4"></circle><path d="M6.74121 5.34375L6.68262 10.2754H7.62988L7.57129 5.34375H6.74121ZM7.15625 2.94141C6.98047 2.94141 6.8291 3.00326 6.70215 3.12695C6.57845 3.25391 6.5166 3.40527 6.5166 3.58105C6.5166 3.75684 6.57845 3.90658 6.70215 4.03027C6.8291 4.15723 6.98047 4.2207 7.15625 4.2207C7.33203 4.2207 7.48177 4.15723 7.60547 4.03027C7.73242 3.90658 7.7959 3.75684 7.7959 3.58105C7.7959 3.40527 7.73242 3.25391 7.60547 3.12695C7.48177 3.00326 7.33203 2.94141 7.15625 2.94141Z" fill="#445799"></path></svg> 