<svg width="36" height="36" viewBox="0 0 36 36" fill="none" xmlns="http://www.w3.org/2000/svg">
<path d="M21.6239 18.25C21.6239 19.3014 21.2062 20.3097 20.4628 21.0532C19.7193 21.7966 18.711 22.2143 17.6596 22.2143C16.6082 22.2143 15.5999 21.7966 14.8564 21.0532C14.113 20.3097 13.6953 19.3014 13.6953 18.25C13.6953 17.1986 14.113 16.1903 14.8564 15.4468C15.5999 14.7034 16.6082 14.2857 17.6596 14.2857C18.711 14.2857 19.7193 14.7034 20.4628 15.4468C21.2062 16.1903 21.6239 17.1986 21.6239 18.25Z" stroke="#525252" stroke-linecap="round" stroke-linejoin="round"/>
<path d="M4.44531 18.25C6.5596 12.8361 11.4965 9 17.6596 9C23.8227 9 28.7596 12.8361 30.8739 18.25C28.7596 23.6639 23.8227 27.5 17.6596 27.5C11.4965 27.5 6.5596 23.6639 4.44531 18.25Z" stroke="#525252" stroke-linecap="round" stroke-linejoin="round"/>
</svg>
