<svg width="36" height="36" viewBox="0 0 36 36" fill="none" xmlns="http://www.w3.org/2000/svg">
<path d="M8.61038 23.7573C7.47493 22.057 6.82241 20.0803 6.72248 18.0382C6.62255 15.9961 7.07895 13.9652 8.04298 12.1622C9.007 10.3592 10.4425 8.85173 12.1962 7.80073C13.95 6.74973 15.9561 6.19461 18.0007 6.19461C20.0452 6.19461 22.0514 6.74973 23.8052 7.80073C25.5589 8.85173 26.9944 10.3592 27.9584 12.1622C28.9224 13.9652 29.3788 15.9961 29.2789 18.0382C29.179 20.0803 28.5265 22.057 27.391 23.7573" stroke="#535353" stroke-linecap="round" stroke-linejoin="round"/>
<path d="M18 24C19.1935 24 20.3381 23.5259 21.182 22.682C22.0259 21.8381 22.5 20.6935 22.5 19.5V16.5C22.5 15.3065 22.0259 14.1619 21.182 13.318C20.3381 12.4741 19.1935 12 18 12C16.8065 12 15.6619 12.4741 14.818 13.318C13.9741 14.1619 13.5 15.3065 13.5 16.5V19.5C13.5 20.6935 13.9741 21.8381 14.818 22.682C15.6619 23.5259 16.8065 24 18 24ZM18 24V28.5M18 28.5L15 31.5H21L18 28.5Z" stroke="#535353" stroke-linecap="round" stroke-linejoin="round"/>
</svg>
