<svg width="110" height="110" viewBox="0 0 110 110" fill="none" xmlns="http://www.w3.org/2000/svg">
<path d="M32.5487 49.3672H14.0327C13.1517 49.3672 12.4375 50.0814 12.4375 50.9624V95.9037C12.4375 96.7847 13.1517 97.4989 14.0327 97.4989H32.5488C33.4298 97.4989 34.1439 96.7847 34.1439 95.9037V50.9624C34.1439 50.0814 33.4298 49.3672 32.5487 49.3672Z" fill="#445799"/>
<path d="M34.1406 54.091C41.3761 46.2264 50.3893 43.3854 53.9596 28.602C60.5659 1.24711 70.0035 15.3956 70.9472 22.9407C71.6718 28.7335 69.0585 38.9843 67.8056 43.433C67.507 44.4935 68.3283 45.5493 69.4292 45.5071L91.7099 44.6546C96.4287 44.6546 101.051 54.6905 93.4133 58.6233C91.3866 59.667 94.3906 61.0367 95.7317 63.0483C97.0727 65.0599 97.3619 69.8528 92.6537 72.9595C90.0682 74.6655 95.1328 75.9072 94.5054 80.6755C93.7376 86.5109 87.9349 86.1722 88.8786 87.1159C92.7698 91.0071 89.8191 97.6544 86.0474 97.4973C63.3971 96.5535 47.3532 98.441 39.8032 95.6176L34.1406 93.7301V54.091Z" fill="#445799"/>
</svg>
